{
	"asset":{
		"version":"2.0",
		"generator":"Created using the official Cinema 4D glTF Exporter 1.000x284978"
	},
	"scenes":[{
		"nodes":[0]
	}],
	"nodes":[{
		"name":"Text",
		"mesh":0
	}],
	"meshes":[{
		"name":"Text",
		"primitives":[{
			"attributes":{
				"POSITION":1,
				"NORMAL":2,
				"TEXCOORD_0":3
			},
			"indices":0
		}]
	}],
	"accessors":[{
		"bufferView":0,
		"type":"SCALAR",
		"componentType":5123,
		"count":13344,
		"byteOffset":0,
		"min":[0],
		"max":[4747]
	},
	{
		"bufferView":1,
		"type":"VEC3",
		"componentType":5126,
		"count":4748,
		"byteOffset":0,
		"min":[-1.2855000495910645,
		0.000024993896658997984,
		-0.05999999865889549],
		"max":[1.2860034704208375,
		0.28002500534057619,
		0.0]
	},
	{
		"bufferView":1,
		"type":"VEC3",
		"componentType":5126,
		"count":4748,
		"byteOffset":12,
		"min":[-1.0,
		-1.0,
		-1.0],
		"max":[1.0,
		1.0,
		1.0]
	},
	{
		"bufferView":1,
		"type":"VEC2",
		"componentType":5126,
		"count":4748,
		"byteOffset":24,
		"min":[0.0,
		0.0],
		"max":[1.0,
		1.0]
	}],
	"bufferViews":[{
		"buffer":0,
		"byteOffset":0,
		"byteLength":26688,
		"target":34963
	},
	{
		"buffer":0,
		"byteOffset":26688,
		"byteLength":151936,
		"target":34962,
		"byteStride":32
	}],
	"buffers":[{
		"uri":"data:application/octet-stream;base64,",
		"byteLength":178624
	}]
}